<svg width="170" height="50" viewBox="0 0 170 50" fill="none" xmlns="http://www.w3.org/2000/svg">
<rect x="0.5" y="0.5" width="169" height="48.9933" rx="4.5" fill="white"/>
<rect x="0.5" y="0.5" width="169" height="48.9933" rx="4.5" stroke="#A6A6A6"/>
<path d="M114.987 22.9256V26.1027H112.999V28.1862H114.987V35.2655C114.987 37.6829 116.079 38.6498 118.826 38.6498C119.309 38.6498 119.769 38.5923 120.171 38.5232V36.4627C119.826 36.4972 119.608 36.5203 119.228 36.5203C117.999 36.5203 117.458 35.9447 117.458 34.6324V28.1862H120.171V26.1027H117.458V22.9256H114.987Z" fill="#282224"/>
<path d="M127.168 38.8225C130.823 38.8225 133.064 36.3706 133.064 32.3072C133.064 28.2668 130.812 25.8034 127.168 25.8034C123.514 25.8034 121.261 28.2668 121.261 32.3072C121.261 36.3706 123.502 38.8225 127.168 38.8225ZM127.168 36.6239C125.019 36.6239 123.812 35.0468 123.812 32.3072C123.812 29.5905 125.019 28.002 127.168 28.002C129.306 28.002 130.524 29.5905 130.524 32.3072C130.524 35.0353 129.306 36.6239 127.168 36.6239Z" fill="#282224"/>
<path d="M134.982 38.5808H137.453V31.1791C137.453 29.4179 138.775 28.2322 140.648 28.2322C141.085 28.2322 141.82 28.3128 142.027 28.3819V25.9415C141.763 25.8724 141.292 25.8379 140.924 25.8379C139.292 25.8379 137.901 26.7358 137.545 27.9675H137.361V26.0451H134.982V38.5808Z" fill="#282224"/>
<path d="M148.163 27.9099C149.99 27.9099 151.185 29.1877 151.243 31.1561H144.922C145.059 29.1992 146.335 27.9099 148.163 27.9099ZM151.231 35.1965C150.771 36.1749 149.749 36.716 148.255 36.716C146.278 36.716 145.002 35.3231 144.922 33.1245V32.9863H153.76V32.123C153.76 28.1862 151.656 25.8034 148.174 25.8034C144.646 25.8034 142.405 28.3473 142.405 32.3532C142.405 36.3591 144.6 38.8225 148.186 38.8225C151.047 38.8225 153.047 37.4412 153.61 35.1965H151.231Z" fill="#282224"/>
<path d="M98.7829 33.9515C98.9735 37.0297 101.535 38.9983 105.347 38.9983C109.421 38.9983 111.97 36.9343 111.97 33.6413C111.97 31.0523 110.516 29.6206 106.99 28.7974L105.096 28.3321C102.857 27.8071 101.952 27.1032 101.952 25.8743C101.952 24.3232 103.357 23.3091 105.466 23.3091C107.467 23.3091 108.849 24.2994 109.099 25.8862H111.696C111.541 22.987 108.992 20.9468 105.501 20.9468C101.749 20.9468 99.2475 22.987 99.2475 26.0532C99.2475 28.5826 100.665 30.0859 103.774 30.8137L105.99 31.3506C108.265 31.8875 109.266 32.6749 109.266 33.9873C109.266 35.5145 107.693 36.6241 105.549 36.6241C103.25 36.6241 101.654 35.5861 101.427 33.9515H98.7829Z" fill="#282224"/>
<path d="M73.1857 25.8379C71.4847 25.8379 70.0136 26.6897 69.255 28.1171H69.0711V26.0451H66.6921V42.7478H69.1631V36.6814H69.3585C70.0136 38.0052 71.4272 38.788 73.2087 38.788C76.3693 38.788 78.3806 36.29 78.3806 32.3072C78.3806 28.3243 76.3693 25.8379 73.1857 25.8379ZM72.4846 36.5663C70.4158 36.5663 69.1171 34.9317 69.1171 32.3187C69.1171 29.6941 70.4158 28.0596 72.4961 28.0596C74.5878 28.0596 75.8406 29.6596 75.8406 32.3072C75.8406 34.9663 74.5878 36.5663 72.4846 36.5663Z" fill="#282224"/>
<path d="M87.0271 25.8379C85.3261 25.8379 83.855 26.6897 83.0964 28.1171H82.9125V26.0451H80.5334V42.7478H83.0045V36.6814H83.1998C83.855 38.0052 85.2686 38.788 87.05 38.788C90.2106 38.788 92.2219 36.29 92.2219 32.3072C92.2219 28.3243 90.2106 25.8379 87.0271 25.8379ZM86.326 36.5663C84.2572 36.5663 82.9585 34.9317 82.9585 32.3187C82.9585 29.6941 84.2572 28.0596 86.3375 28.0596C88.4292 28.0596 89.682 29.6596 89.682 32.3072C89.682 34.9663 88.4292 36.5663 86.326 36.5663Z" fill="#282224"/>
<path d="M62.2586 38.5808H65.0937L58.8875 21.3644H56.0166L49.8103 38.5808H52.5501L54.1345 34.0112H60.6862L62.2586 38.5808ZM57.315 24.4903H57.5175L60.0072 31.7682H54.8135L57.315 24.4903Z" fill="#282224"/>
<path d="M51.4702 8.37862V16.6839H54.4642C56.9352 16.6839 58.3661 15.1587 58.3661 12.5054C58.3661 9.89233 56.9237 8.37862 54.4642 8.37862H51.4702ZM52.7574 9.55275H54.3205C56.0387 9.55275 57.0559 10.6463 57.0559 12.5226C57.0559 14.4277 56.056 15.5098 54.3205 15.5098H52.7574V9.55275Z" fill="#282224"/>
<path d="M62.7484 16.8048C64.5758 16.8048 65.6964 15.5788 65.6964 13.5471C65.6964 11.5269 64.5701 10.2952 62.7484 10.2952C60.921 10.2952 59.7947 11.5269 59.7947 13.5471C59.7947 15.5788 60.9153 16.8048 62.7484 16.8048ZM62.7484 15.7055C61.6738 15.7055 61.0704 14.917 61.0704 13.5471C61.0704 12.1888 61.6738 11.3945 62.7484 11.3945C63.8173 11.3945 64.4264 12.1888 64.4264 13.5471C64.4264 14.9112 63.8173 15.7055 62.7484 15.7055Z" fill="#282224"/>
<path d="M75.2391 10.4161H74.0036L72.8888 15.199H72.7911L71.5039 10.4161H70.3201L69.0328 15.199H68.9409L67.8203 10.4161H66.5676L68.2915 16.6839H69.5615L70.8488 12.0679H70.9464L72.2394 16.6839H73.5209L75.2391 10.4161Z" fill="#282224"/>
<path d="M76.662 16.6839H77.8975V13.0176C77.8975 12.0392 78.4779 11.4291 79.3916 11.4291C80.3053 11.4291 80.742 11.9298 80.742 12.937V16.6839H81.9775V12.6262C81.9775 11.1355 81.2075 10.2952 79.8111 10.2952C78.8686 10.2952 78.248 10.7154 77.9435 11.4118H77.8515V10.4161H76.662V16.6839Z" fill="#282224"/>
<path d="M83.9233 16.6839H85.1588V7.96997H83.9233V16.6839Z" fill="#282224"/>
<path d="M89.8055 16.8048C91.6329 16.8048 92.7535 15.5788 92.7535 13.5471C92.7535 11.5269 91.6272 10.2952 89.8055 10.2952C87.9781 10.2952 86.8518 11.5269 86.8518 13.5471C86.8518 15.5788 87.9723 16.8048 89.8055 16.8048ZM89.8055 15.7055C88.7309 15.7055 88.1275 14.917 88.1275 13.5471C88.1275 12.1888 88.7309 11.3945 89.8055 11.3945C90.8744 11.3945 91.4835 12.1888 91.4835 13.5471C91.4835 14.9112 90.8744 15.7055 89.8055 15.7055Z" fill="#282224"/>
<path d="M96.4347 15.7458C95.7624 15.7458 95.2739 15.4177 95.2739 14.8536C95.2739 14.3011 95.6647 14.0076 96.5267 13.95L98.0552 13.8522V14.3759C98.0552 15.1529 97.3657 15.7458 96.4347 15.7458ZM96.1187 16.7875C96.9404 16.7875 97.6243 16.4307 97.9978 15.8033H98.0955V16.6839H99.285V12.4018C99.285 11.078 98.4 10.2952 96.8312 10.2952C95.4118 10.2952 94.4004 10.9859 94.274 12.0622H95.4693C95.6072 11.619 96.0842 11.3658 96.7738 11.3658C97.6185 11.3658 98.0552 11.7399 98.0552 12.4018V12.9428L96.36 13.0406C94.8717 13.1327 94.0327 13.7831 94.0327 14.9112C94.0327 16.0566 94.9119 16.7875 96.1187 16.7875Z" fill="#282224"/>
<path d="M103.478 16.7875C104.34 16.7875 105.069 16.3789 105.443 15.694H105.541V16.6839H106.725V7.96997H105.489V11.4118H105.397C105.058 10.7211 104.334 10.3125 103.478 10.3125C101.897 10.3125 100.88 11.5672 100.88 13.5471C100.88 15.5328 101.886 16.7875 103.478 16.7875ZM103.828 11.4233C104.863 11.4233 105.512 12.2464 105.512 13.5529C105.512 14.8652 104.868 15.6767 103.828 15.6767C102.782 15.6767 102.156 14.8767 102.156 13.5471C102.156 12.2291 102.788 11.4233 103.828 11.4233Z" fill="#282224"/>
<path d="M114.736 16.8048C116.564 16.8048 117.684 15.5788 117.684 13.5471C117.684 11.5269 116.558 10.2952 114.736 10.2952C112.909 10.2952 111.783 11.5269 111.783 13.5471C111.783 15.5788 112.903 16.8048 114.736 16.8048ZM114.736 15.7055C113.662 15.7055 113.058 14.917 113.058 13.5471C113.058 12.1888 113.662 11.3945 114.736 11.3945C115.805 11.3945 116.414 12.1888 116.414 13.5471C116.414 14.9112 115.805 15.7055 114.736 15.7055Z" fill="#282224"/>
<path d="M119.32 16.6839H120.555V13.0176C120.555 12.0392 121.136 11.4291 122.049 11.4291C122.963 11.4291 123.4 11.9298 123.4 12.937V16.6839H124.635V12.6262C124.635 11.1355 123.865 10.2952 122.469 10.2952C121.526 10.2952 120.906 10.7154 120.601 11.4118H120.509V10.4161H119.32V16.6839Z" fill="#282224"/>
<path d="M130.326 8.85633V10.4449H129.331V11.4866H130.326V15.0263C130.326 16.235 130.872 16.7184 132.245 16.7184C132.486 16.7184 132.716 16.6897 132.917 16.6551V15.6249C132.745 15.6422 132.636 15.6537 132.446 15.6537C131.831 15.6537 131.561 15.3659 131.561 14.7098V11.4866H132.917V10.4449H131.561V8.85633H130.326Z" fill="#282224"/>
<path d="M134.576 16.6839H135.811V13.0234C135.811 12.0737 136.374 11.4348 137.386 11.4348C138.259 11.4348 138.725 11.9413 138.725 12.9428V16.6839H139.96V12.6377C139.96 11.147 139.139 10.301 137.805 10.301C136.863 10.301 136.202 10.7211 135.897 11.4233H135.8V7.96997H134.576V16.6839Z" fill="#282224"/>
<path d="M144.417 11.3485C145.331 11.3485 145.929 11.9874 145.957 12.9716H142.797C142.866 11.9931 143.504 11.3485 144.417 11.3485ZM145.952 14.9918C145.722 15.481 145.21 15.7515 144.463 15.7515C143.475 15.7515 142.837 15.0551 142.797 13.9558V13.8867H147.216V13.455C147.216 11.4866 146.164 10.2952 144.423 10.2952C142.659 10.2952 141.538 11.5672 141.538 13.5701C141.538 15.5731 142.636 16.8048 144.429 16.8048C145.86 16.8048 146.86 16.1141 147.141 14.9918H145.952Z" fill="#282224"/>
<path d="M36.403 24.451C36.433 22.1198 37.6829 19.9141 39.6659 18.6931C38.4149 16.9037 36.3197 15.7692 34.1398 15.7009C31.8147 15.4565 29.5607 17.0944 28.3759 17.0944C27.1682 17.0944 25.344 15.7252 23.3796 15.7657C20.8192 15.8485 18.4322 17.3065 17.1865 19.5485C14.5087 24.192 16.5061 31.0163 19.0712 34.7697C20.3546 36.6076 21.8545 38.6607 23.817 38.5878C25.7375 38.5081 26.4548 37.3613 28.773 37.3613C31.0697 37.3613 31.7426 38.5878 33.745 38.5416C35.8058 38.5081 37.1042 36.6954 38.3426 34.8401C39.2647 33.5305 39.9742 32.0831 40.4449 30.5516C38.0231 29.5256 36.4058 27.0846 36.403 24.451Z" fill="#282224"/>
<path d="M32.6208 13.2325C33.7444 11.8815 34.298 10.145 34.1639 8.39185C32.4473 8.57243 30.8616 9.39416 29.7228 10.6933C28.6092 11.9627 28.0297 13.6686 28.1392 15.3547C29.8565 15.3725 31.5447 14.573 32.6208 13.2325Z" fill="#282224"/>
</svg>
