<svg width="1240" height="770" viewBox="0 0 1240 770" fill="none" xmlns="http://www.w3.org/2000/svg">
<path d="M0 50C0 22.3858 22.3858 0 50 0H1190C1217.61 0 1240 22.3858 1240 50V562.66C1240 587.748 1221.41 608.951 1196.54 612.231L56.5361 762.545C26.5851 766.495 0 743.185 0 712.974V50Z" fill="#E8DEF8"/>
<mask id="mask0_139_1469" style="mask-type:alpha" maskUnits="userSpaceOnUse" x="0" y="0" width="1240" height="763">
<path d="M0 50C0 22.3858 22.3858 0 50 0H1190C1217.61 0 1240 22.3858 1240 50V562.66C1240 587.748 1221.41 608.951 1196.54 612.231L56.5361 762.545C26.5851 766.495 0 743.185 0 712.974V50Z" fill="#E8DEF8"/>
</mask>
<g mask="url(#mask0_139_1469)">
<path d="M-194.379 459.587C-178.024 457.376 -141.089 455.623 -124.185 466.296C-103.054 479.638 -81.6511 515.052 -57.0066 524.047C-32.3621 533.041 42.9079 509.639 76.2474 525.661C109.587 541.684 113.909 577.955 131.621 590.546C149.333 603.138 198.025 588.873 225.316 604.464C252.608 620.054 261.059 670.157 285.704 679.152C310.348 688.146 375.1 666.018 408.44 682.04C441.779 698.063 429.311 726.872 453.665 744.185C478.019 761.498 521.727 744.284 521.727 744.284" stroke="#FFFBFE" stroke-width="2"/>
<path d="M-221.979 510.643C-205.687 508.01 -168.81 505.301 -151.635 515.534C-130.166 528.324 -107.853 563.173 -82.9844 571.526C-58.1153 579.88 16.5238 554.537 50.2668 569.691C84.0099 584.845 89.2694 620.992 107.301 633.121C125.333 645.25 173.639 629.729 201.325 644.608C229.011 659.487 238.757 709.355 263.626 717.709C288.495 726.062 352.653 702.265 386.396 717.419C420.139 732.574 408.42 761.696 433.214 778.373C458.008 795.05 501.256 776.71 501.256 776.71" stroke="#FFFBFE" stroke-width="2"/>
<path d="M-252.979 578.868C-236.687 576.235 -199.81 573.526 -182.635 583.759C-161.166 596.549 -138.853 631.397 -113.984 639.751C-89.1153 648.104 -14.4762 622.762 19.2668 637.916C53.0099 653.07 58.2694 689.217 76.3012 701.346C94.3329 713.474 142.639 697.954 170.325 712.833C198.011 727.712 207.757 777.58 232.626 785.933C257.495 794.287 321.653 770.49 355.396 785.644C389.139 800.799 377.42 829.921 402.214 846.597C427.008 863.274 470.256 844.934 470.256 844.934" stroke="#FFFBFE" stroke-width="2"/>
<path d="M630.849 -43.3691C647.157 -45.9056 684.05 -48.3949 701.163 -38.0605C722.556 -25.1426 744.661 9.83762 769.48 18.3388C794.299 26.84 869.087 1.94132 902.739 17.296C936.392 32.6506 941.436 68.828 959.396 81.0636C977.355 93.2993 1025.75 78.0666 1053.35 93.1098C1080.95 108.153 1090.4 158.078 1115.21 166.579C1140.03 175.08 1204.33 151.665 1237.98 167.02C1271.64 182.374 1259.75 211.426 1284.44 228.25C1309.13 245.074 1352.49 226.991 1352.49 226.991" stroke="#FFFBFE" stroke-width="2"/>
<path d="M673.023 -110.369C689.33 -112.906 726.223 -115.395 743.337 -105.061C764.729 -92.1426 786.835 -57.1624 811.653 -48.6612C836.472 -40.16 911.261 -65.0587 944.913 -49.704C978.566 -34.3494 983.61 1.82797 1001.57 14.0636C1019.53 26.2993 1067.93 11.0666 1095.52 26.1098C1123.12 41.153 1132.57 91.0778 1157.39 99.579C1182.21 108.08 1246.51 84.665 1280.16 100.02C1313.81 115.374 1301.92 144.426 1326.61 161.25C1351.31 178.074 1394.66 159.991 1394.66 159.991" stroke="#FFFBFE" stroke-width="2"/>
</g>
</svg>
