<svg width="1240" height="560" viewBox="0 0 1240 560" fill="none" xmlns="http://www.w3.org/2000/svg">
<path fill-rule="evenodd" clip-rule="evenodd" d="M217.505 0H14C6.26801 0 0 6.268 0 14V189.739C12.3179 184.439 28.6081 178.583 45.3104 174.795C66.649 169.955 88.9209 168.425 104.4 176.024C113.986 180.729 124.031 188.362 134.327 197.229C141.4 203.32 148.629 210.028 155.929 216.802L155.929 216.802L155.93 216.802L155.93 216.802L155.93 216.803L155.931 216.803C159.256 219.889 162.596 222.988 165.943 226.049C176.658 235.849 187.463 245.276 198.191 252.735C208.925 260.199 219.514 265.643 229.79 267.545C234.846 268.48 241.011 268.04 248.098 266.53C255.176 265.022 263.106 262.463 271.666 259.217C284.36 254.404 298.361 248.113 312.939 241.561L312.94 241.561C318.036 239.271 323.203 236.95 328.409 234.648C348.478 225.777 369.107 217.22 388.367 212.053C407.605 206.892 425.623 205.073 440.406 209.829C469.76 219.273 489.242 242.926 505.349 266.329C508.655 271.134 511.809 275.911 514.877 280.559L514.886 280.573L514.89 280.578C519.327 287.3 523.584 293.749 527.864 299.614C535.092 309.52 542.234 317.536 550.098 322.067C557.843 326.529 568.08 326.772 580.041 324.783C590.705 323.009 602.558 319.495 614.972 315.816L614.973 315.816L615.015 315.803C616.49 315.366 617.974 314.926 619.464 314.487C633.474 310.356 648.062 306.264 662.187 304.498C676.315 302.732 690.066 303.282 702.378 308.51C714.688 313.737 725.784 324.132 736.133 336.779C746.216 349.1 755.664 363.656 764.874 377.844L765.621 378.994C775.084 393.57 784.299 407.671 793.755 418.616C803.228 429.582 812.802 437.209 822.93 439.083C833.113 440.968 846.641 437.732 862.292 431.93C873.858 427.642 886.452 422.007 899.555 416.144C904.143 414.092 908.794 412.011 913.484 409.95C931.538 402.019 950.156 394.401 967.91 389.941C985.654 385.482 1002.65 384.147 1017.41 388.896C1046.85 398.368 1059.07 420.092 1069.44 442.356C1070.52 444.662 1071.57 446.972 1072.62 449.275C1081.75 469.288 1090.61 488.712 1110.18 499.984C1120.92 506.176 1135.24 506.18 1150.85 502.525C1166.43 498.876 1183.13 491.624 1198.49 483.55C1213.84 475.48 1227.82 466.611 1237.96 459.757C1238.66 459.285 1239.34 458.823 1240 458.372V274.921C1218.72 285.808 1191.64 293.647 1169.12 280.674C1148.97 269.061 1139.83 249.015 1130.75 229.076C1129.7 226.763 1128.64 224.451 1127.57 222.155C1117.24 199.967 1105.33 178.954 1076.75 169.758C1062.5 165.175 1045.93 166.419 1028.34 170.839C1010.77 175.256 992.278 182.814 974.235 190.74C969.578 192.786 964.948 194.857 960.372 196.905C947.25 202.776 934.566 208.451 922.934 212.763C907.279 218.567 893.287 222.002 882.514 220.008C871.686 218.004 861.73 209.928 852.185 198.88C842.622 187.811 833.331 173.586 823.886 159.038L823.167 157.931C813.936 143.71 804.54 129.236 794.529 117.001C784.251 104.441 773.405 94.3452 761.542 89.3085C749.681 84.272 736.325 83.6986 722.383 85.4411C708.438 87.184 693.993 91.2312 679.977 95.3635C678.473 95.8068 676.974 96.2513 675.481 96.6939C663.091 100.367 651.111 103.918 640.316 105.714C628.237 107.723 617.413 107.579 609.045 102.758C600.797 98.0052 593.449 89.6946 586.191 79.7481C581.897 73.8635 577.583 67.3287 573.115 60.5616L573.11 60.5548C570.042 55.9072 566.901 51.15 563.644 46.4185C551.583 28.893 537.791 11.4943 519.552 0L426.776 0C414.365 4.51537 401.678 9.90432 389.164 15.4362C383.99 17.7231 378.845 20.0354 373.761 22.3196L373.756 22.3221L373.754 22.3227C359.158 28.8817 345.076 35.2098 332.321 40.0461C323.716 43.3091 315.679 45.9071 308.462 47.4447C301.254 48.9803 294.796 49.4734 289.374 48.4698C278.694 46.4931 267.831 40.8701 256.994 33.3348C246.15 25.7949 235.263 16.2908 224.538 6.48177C222.185 4.32944 219.84 2.1634 217.505 0ZM523.206 0C540.541 11.7034 553.778 28.5595 565.291 45.2876C568.602 50.0987 571.76 54.8828 574.832 59.5363C579.269 66.2582 583.527 72.7075 587.806 78.572C595.034 88.478 602.177 96.4946 610.04 101.025C617.785 105.487 628.022 105.73 639.983 103.741C650.647 101.967 662.5 98.4537 674.915 94.7739C676.404 94.3324 677.902 93.8885 679.406 93.445C693.416 89.3147 708.004 85.222 722.13 83.4565C736.258 81.6907 750.009 82.2405 762.32 87.4678C774.63 92.6949 785.727 103.091 796.075 115.737C806.158 128.059 815.607 142.615 824.816 156.802L825.563 157.952C835.026 172.528 844.241 186.629 853.697 197.574C863.17 208.54 872.744 216.167 882.873 218.042C893.055 219.926 906.583 216.69 922.234 210.888C933.8 206.6 946.394 200.965 959.497 195.103C964.085 193.05 968.736 190.969 973.426 188.909C991.48 180.978 1010.1 173.36 1027.85 168.899C1045.6 164.44 1062.59 163.105 1077.35 167.855C1106.79 177.326 1119.02 199.05 1129.38 221.314C1130.46 223.62 1131.51 225.93 1132.56 228.233C1141.69 248.246 1150.55 267.67 1170.12 278.942C1191.79 291.431 1218.18 283.9 1239.41 272.974C1239.61 272.873 1239.8 272.771 1240 272.668V14C1240 6.26801 1233.73 0 1226 0L523.206 0ZM421.034 0C410.179 4.12142 399.183 8.81815 388.351 13.6065C383.145 15.9079 377.978 18.2296 372.882 20.5196L372.881 20.5202C358.303 27.0711 344.302 33.3625 331.608 38.1757C323.048 41.4213 315.118 43.9807 308.04 45.4886C300.953 46.9985 294.788 47.4389 289.733 46.5032C279.456 44.6012 268.868 39.1576 258.133 31.6937C247.405 24.2346 236.6 14.8071 225.885 5.00753C224.07 3.34685 222.256 1.67491 220.445 0H421.034ZM1240 460.795C1239.7 461 1239.39 461.206 1239.09 461.415C1228.9 468.295 1214.86 477.206 1199.42 485.321C1183.99 493.431 1167.13 500.769 1151.31 504.472C1135.52 508.169 1120.59 508.288 1109.18 501.716C1089.03 490.103 1079.89 470.057 1070.81 450.118L1070.78 450.063C1069.74 447.768 1068.69 445.475 1067.63 443.196C1057.3 421.008 1045.39 399.996 1016.8 390.8C1002.56 386.216 985.99 387.461 968.402 391.88C950.823 396.297 932.336 403.855 914.293 411.782C909.636 413.828 905.006 415.899 900.43 417.946L900.428 417.947C887.306 423.818 874.624 429.493 862.991 433.805C847.337 439.609 833.345 443.044 822.571 441.05C811.744 439.046 801.787 430.969 792.243 419.921C782.68 408.852 773.389 394.628 763.944 380.08L763.225 378.973L763.225 378.972C753.993 364.751 744.598 350.277 734.587 338.043C724.309 325.483 713.462 315.387 701.6 310.35C689.739 305.314 676.383 304.74 662.441 306.483C648.496 308.226 634.051 312.273 620.034 316.405C619.566 316.543 619.097 316.682 618.629 316.82C617.602 317.124 616.577 317.428 615.555 317.73L615.539 317.735C603.149 321.408 591.169 324.96 580.374 326.756C568.295 328.765 557.471 328.62 549.103 323.799C540.855 319.047 533.507 310.736 526.249 300.79C521.956 294.906 517.642 288.372 513.174 281.606L513.173 281.604C510.103 276.954 506.96 272.194 503.702 267.46C487.621 244.095 468.465 220.956 439.798 211.732C425.569 207.155 408.009 208.856 388.89 213.985C369.791 219.108 349.283 227.609 329.221 236.478C324.046 238.766 318.898 241.079 313.813 243.364L313.812 243.364C299.216 249.923 285.134 256.251 272.379 261.088C263.773 264.351 255.737 266.949 248.52 268.486C241.312 270.022 234.854 270.515 229.431 269.511C218.752 267.535 207.889 261.912 197.052 254.376C186.208 246.837 175.321 237.332 164.596 227.523C161.224 224.44 157.87 221.328 154.538 218.236C147.252 211.475 140.069 204.81 133.024 198.743C122.76 189.903 112.871 182.408 103.523 177.819C88.7084 170.547 67.0389 171.918 45.7577 176.745C28.8284 180.585 12.3095 186.573 0 191.92V324.166C12.2973 318.885 28.5136 313.067 45.1382 309.296C66.4768 304.456 88.7487 302.926 104.228 310.525C113.813 315.23 123.859 322.863 134.155 331.73C141.227 337.821 148.456 344.529 155.757 351.303L155.757 351.303L155.757 351.303L155.757 351.303L155.758 351.304L155.765 351.31L155.774 351.319C159.094 354.4 162.429 357.494 165.771 360.55C176.486 370.35 187.291 379.777 198.019 387.236C208.753 394.7 219.342 400.144 229.618 402.046C234.673 402.982 240.839 402.541 247.926 401.031C255.003 399.523 262.934 396.964 271.493 393.718C284.188 388.905 298.189 382.613 312.768 376.062C317.864 373.772 323.03 371.451 328.236 369.149C348.306 360.278 368.935 351.721 388.195 346.554C407.433 341.393 425.451 339.574 440.233 344.33C469.588 353.774 489.069 377.427 505.176 400.83C508.488 405.641 511.646 410.426 514.718 415.079C519.155 421.801 523.412 428.25 527.691 434.115C534.92 444.021 542.062 452.037 549.926 456.568C557.67 461.03 567.908 461.273 579.868 459.284C590.533 457.51 602.386 453.996 614.8 450.317C616.29 449.875 617.787 449.431 619.292 448.988C633.301 444.857 647.89 440.765 662.015 438.999C676.143 437.233 689.894 437.783 702.205 443.011C714.516 448.238 725.612 458.634 735.961 471.28C746.043 483.602 755.492 498.158 764.702 512.345L765.448 513.495C774.911 528.071 784.127 542.172 793.582 553.117C795.719 555.591 797.861 557.894 800.013 560H878.137C885.001 557.08 892.111 553.899 899.377 550.648L899.382 550.646L899.386 550.644L899.391 550.642L899.424 550.627L899.449 550.616C904.016 548.573 908.644 546.502 913.312 544.451C931.366 536.52 949.984 528.902 967.737 524.442C985.482 519.983 1002.48 518.648 1017.24 523.397C1039.12 530.435 1051.48 544.238 1060.65 560H1226C1233.73 560 1240 553.732 1240 546V460.795ZM0 521.29V326.346C12.2911 321.018 28.7349 315.069 45.5855 311.246C66.8667 306.419 88.5361 305.048 103.351 312.32C112.699 316.909 122.587 324.404 132.852 333.244C139.893 339.308 147.072 345.969 154.355 352.727L154.358 352.729L154.36 352.732L154.365 352.737L154.366 352.737C157.698 355.829 161.052 358.941 164.423 362.025C175.148 371.834 186.036 381.338 196.88 388.878C207.717 396.413 218.579 402.036 229.259 404.012C234.682 405.016 241.14 404.523 248.347 402.987C255.565 401.45 263.601 398.852 272.207 395.589C284.962 390.752 299.045 384.424 313.641 377.865L313.642 377.865L313.642 377.864L313.643 377.864L313.644 377.864C318.728 375.579 323.874 373.266 329.049 370.979C349.111 362.111 369.619 353.609 388.717 348.486C407.837 343.357 425.397 341.656 439.625 346.233C468.293 355.457 487.449 378.596 503.53 401.961C506.786 406.692 509.926 411.448 512.994 416.095L512.996 416.098L513 416.104L513.002 416.107L513.003 416.109L513.005 416.112L513.009 416.118C517.474 422.88 521.786 429.41 526.077 435.291C533.335 445.237 540.682 453.548 548.931 458.3C557.298 463.121 568.122 463.266 580.202 461.257C590.996 459.461 602.976 455.91 615.366 452.237C616.859 451.794 618.358 451.35 619.862 450.906C633.878 446.774 648.324 442.727 662.268 440.984C676.21 439.241 689.566 439.815 701.428 444.851C713.29 449.888 724.136 459.984 734.414 472.544C744.425 484.778 753.821 499.253 763.053 513.473L763.053 513.474L763.772 514.581C773.217 529.129 782.508 543.353 792.07 554.422C793.762 556.381 795.467 558.246 797.187 560H323.69C321.235 556.395 318.758 552.643 316.223 548.802C313.151 544.149 309.993 539.365 306.681 534.554C290.574 511.151 271.093 487.497 241.738 478.053C226.956 473.297 208.938 475.117 189.7 480.278C170.44 485.444 149.811 494.001 129.741 502.873C124.535 505.174 119.369 507.496 114.273 509.786C99.6939 516.337 85.6927 522.628 72.9984 527.442C64.4388 530.687 56.5083 533.247 49.4308 534.755C42.3435 536.265 36.1783 536.705 31.123 535.769C20.9986 533.895 10.5715 528.584 0 521.29ZM0 523.709V546C0 553.732 6.268 560 14 560H321.277C319.048 556.708 316.797 553.298 314.505 549.828L314.5 549.819C311.432 545.172 308.291 540.416 305.035 535.685C288.954 512.32 269.798 489.18 241.13 479.957C226.902 475.379 209.342 477.081 190.223 482.209C171.124 487.333 150.616 495.834 130.554 504.702C125.38 506.989 120.234 509.302 115.151 511.586L115.146 511.588L115.144 511.589L115.14 511.591C100.546 518.149 86.4652 524.476 73.7117 529.312C65.1062 532.575 57.0699 535.173 49.8525 536.711C42.6447 538.246 36.1867 538.739 30.764 537.736C20.6149 535.857 10.3007 530.686 0 523.709ZM1058.33 560H883.207C888.77 557.587 894.471 555.037 900.257 552.448L900.258 552.447C904.834 550.4 909.463 548.329 914.12 546.283C932.164 538.356 950.65 530.798 968.229 526.381C985.818 521.962 1002.38 520.717 1016.63 525.301C1037.41 531.986 1049.38 544.914 1058.33 560Z" fill="#A08FCF"/>
</svg>
