<svg width="170" height="50" viewBox="0 0 170 50" fill="none" xmlns="http://www.w3.org/2000/svg">
<rect x="0.5" y="0.5" width="169" height="48.9933" rx="4.5" fill="white"/>
<rect x="0.5" y="0.5" width="169" height="48.9933" rx="4.5" stroke="#A6A6A6"/>
<path d="M85.8009 27.1851C82.8391 27.1851 80.4251 29.4211 80.4251 32.5007C80.4251 35.5615 82.8391 37.8162 85.8009 37.8162C88.7639 37.8162 91.1779 35.5615 91.1779 32.5007C91.1766 29.4211 88.7626 27.1851 85.8009 27.1851ZM85.8009 35.724C84.1777 35.724 82.7786 34.3954 82.7786 32.5019C82.7786 30.5884 84.1789 29.2798 85.8009 29.2798C87.4241 29.2798 88.8231 30.5884 88.8231 32.5019C88.8231 34.3941 87.4241 35.724 85.8009 35.724ZM74.0721 27.1851C71.1103 27.1851 68.6964 29.4211 68.6964 32.5007C68.6964 35.5615 71.1103 37.8162 74.0721 37.8162C77.0352 37.8162 79.4492 35.5615 79.4492 32.5007C79.4492 29.4211 77.0352 27.1851 74.0721 27.1851ZM74.0721 35.724C72.4489 35.724 71.0499 34.3954 71.0499 32.5019C71.0499 30.5884 72.4502 29.2798 74.0721 29.2798C75.6953 29.2798 77.0943 30.5884 77.0943 32.5019C77.0956 34.3941 75.6953 35.724 74.0721 35.724ZM60.1221 28.8174V31.0721H65.5595C65.3971 32.3407 64.9715 33.2668 64.3217 33.9105C63.5309 34.6954 62.293 35.5615 60.1221 35.5615C56.7749 35.5615 54.1582 32.8831 54.1582 29.561C54.1582 26.239 56.7749 23.5606 60.1221 23.5606C61.9278 23.5606 63.2463 24.2655 64.2197 25.1716L65.8227 23.5806C64.4627 22.292 62.6582 21.3059 60.1221 21.3059C55.5371 21.3059 51.6825 25.0104 51.6825 29.561C51.6825 34.1117 55.5371 37.8162 60.1221 37.8162C62.5965 37.8162 64.464 37.01 65.9235 35.5002C67.4245 34.0104 67.8917 31.9157 67.8917 30.2247C67.8917 29.7023 67.8514 29.2186 67.7695 28.8161H60.1221V28.8174ZM117.177 30.5684C116.731 29.3811 115.371 27.1851 112.592 27.1851C109.833 27.1851 107.539 29.3398 107.539 32.5007C107.539 35.4803 109.812 37.8162 112.855 37.8162C115.309 37.8162 116.73 36.3264 117.319 35.4603L115.493 34.2517C114.885 35.1378 114.052 35.7215 112.855 35.7215C111.659 35.7215 110.806 35.1778 110.258 34.1104L117.42 31.1708L117.177 30.5684ZM109.873 32.3407C109.812 30.2859 111.476 29.2398 112.673 29.2398C113.607 29.2398 114.397 29.7035 114.662 30.3672L109.873 32.3407ZM104.051 37.495H106.404V21.8708H104.051V37.495ZM100.195 28.3737H100.115C99.5872 27.7488 98.5723 27.1851 97.2954 27.1851C94.6169 27.1851 92.1627 29.5211 92.1627 32.5219C92.1627 35.5015 94.6169 37.8174 97.2954 37.8174C98.5735 37.8174 99.5872 37.2538 100.115 36.6101H100.195V37.375C100.195 39.4085 99.0999 40.4958 97.3357 40.4958C95.8951 40.4958 95.0023 39.4697 94.6371 38.6036L92.5883 39.4497C93.1763 40.8583 94.7378 42.5905 97.3357 42.5905C100.095 42.5905 102.428 40.9795 102.428 37.0525V27.5088H100.197V28.3737H100.195ZM97.4981 35.724C95.8749 35.724 94.5162 34.3741 94.5162 32.5219C94.5162 30.6484 95.8749 29.2798 97.4981 29.2798C99.0999 29.2798 100.358 30.6484 100.358 32.5219C100.358 34.3741 99.0999 35.724 97.4981 35.724ZM128.2 21.8708H122.57V37.495H124.918V31.5758H128.199C130.803 31.5758 133.364 29.7048 133.364 26.7239C133.364 23.7431 130.804 21.8708 128.2 21.8708ZM128.261 29.4011H124.918V24.0455H128.261C130.017 24.0455 131.015 25.4891 131.015 26.7239C131.015 27.9338 130.017 29.4011 128.261 29.4011ZM142.782 27.1576C141.081 27.1576 139.319 27.9013 138.59 29.5498L140.676 30.4134C141.121 29.5498 141.952 29.2673 142.823 29.2673C144.038 29.2673 145.273 29.991 145.293 31.2771V31.4383C144.868 31.1971 143.956 30.8359 142.843 30.8359C140.595 30.8359 138.306 32.062 138.306 34.3529C138.306 36.4439 140.149 37.7899 142.214 37.7899C143.794 37.7899 144.665 37.0863 145.211 36.2614H145.292V37.4675H147.561V31.477C147.562 28.7049 145.475 27.1576 142.782 27.1576ZM142.498 35.7202C141.73 35.7202 140.655 35.3378 140.655 34.3929C140.655 33.1868 141.993 32.7244 143.148 32.7244C144.179 32.7244 144.666 32.9456 145.293 33.2468C145.111 34.6954 143.855 35.7202 142.498 35.7202ZM155.825 27.4988L153.131 34.2729H153.05L150.255 27.4988H147.724L151.916 36.9663L149.526 42.2331H151.976L158.437 27.4988H155.825ZM134.661 37.495H137.01V21.8708H134.661V37.495Z" fill="#282224"/>
<path d="M59.7117 12.802C59.7117 13.8493 59.3994 14.6829 58.7735 15.3054C58.0633 16.0453 57.1365 16.4152 55.9981 16.4152C54.9076 16.4152 53.9795 16.0403 53.2177 15.2904C52.4546 14.5392 52.073 13.6093 52.073 12.4995C52.073 11.3884 52.4546 10.4585 53.2177 9.70862C53.9795 8.95747 54.9076 8.58252 55.9981 8.58252C56.5396 8.58252 57.0571 8.68751 57.5483 8.89623C58.0406 9.1062 58.4348 9.38491 58.7294 9.73361L58.0658 10.3935C57.5659 9.79986 56.8771 9.50365 55.9968 9.50365C55.201 9.50365 54.5134 9.78111 53.9329 10.336C53.3524 10.891 53.0628 11.6121 53.0628 12.4982C53.0628 13.3844 53.3524 14.1055 53.9329 14.6605C54.5134 15.2154 55.201 15.4928 55.9968 15.4928C56.8406 15.4928 57.5445 15.2141 58.1074 14.6555C58.4726 14.2918 58.6841 13.7856 58.7408 13.1369H55.9968V12.2358H59.6575C59.6953 12.432 59.7117 12.6207 59.7117 12.802Z" fill="#282224"/>
<path d="M65.517 9.66994H62.0767V12.0471H65.1795V12.9483H62.0767V15.3254H65.517V16.2478H61.1058V8.74882H65.517V9.66994Z" fill="#282224"/>
<path d="M69.6107 16.2478H68.6398V9.66994H66.5293V8.74882H71.7212V9.66994H69.6107V16.2478Z" fill="#282224"/>
<path d="M75.4775 16.2478V8.74882H76.4484V16.2478H75.4775Z" fill="#282224"/>
<path d="M80.754 16.2478H79.7831V9.66994H77.6726V8.74882H82.8645V9.66994H80.754V16.2478Z" fill="#282224"/>
<path d="M92.6928 15.2792C91.9498 16.0366 91.0268 16.4153 89.9224 16.4153C88.818 16.4153 87.895 16.0366 87.1533 15.2792C86.4103 14.5218 86.0401 13.5944 86.0401 12.4983C86.0401 11.4022 86.4103 10.4748 87.1533 9.71742C87.895 8.96003 88.818 8.58008 89.9224 8.58008C91.0205 8.58008 91.9423 8.96128 92.6877 9.72242C93.4332 10.4836 93.806 11.4084 93.806 12.4983C93.806 13.5944 93.4345 14.5218 92.6928 15.2792ZM87.8698 14.6505C88.4289 15.2129 89.1127 15.4929 89.9224 15.4929C90.7321 15.4929 91.4171 15.2117 91.975 14.6505C92.5341 14.0881 92.8149 13.3707 92.8149 12.4983C92.8149 11.6259 92.5341 10.9085 91.975 10.3461C91.4171 9.78367 90.7321 9.5037 89.9224 9.5037C89.1127 9.5037 88.4289 9.78492 87.8698 10.3461C87.312 10.9085 87.0311 11.6259 87.0311 12.4983C87.0311 13.3707 87.312 14.0881 87.8698 14.6505Z" fill="#282224"/>
<path d="M95.1685 16.2478V8.74882H96.3497L100.022 14.5818H100.063L100.022 13.137V8.74882H100.993V16.2478H99.9789L96.1369 10.1311H96.0953L96.1369 11.5759V16.2478H95.1685Z" fill="#282224"/>
<g filter="url(#filter0_ii_139_1482)">
<path d="M13.1416 9.42132C12.7752 9.80626 12.5586 10.4037 12.5586 11.1773V38.8186C12.5586 39.5935 12.7752 40.1897 13.1416 40.5746L13.2348 40.6646L28.8358 25.1804V24.998V24.8155L13.2348 9.33008L13.1416 9.42132Z" fill="url(#paint0_linear_139_1482)"/>
<path d="M34.0353 30.3436L28.8358 25.1806V24.9981V24.8156L34.0366 19.6538L34.1537 19.72L40.3152 23.1946C42.0744 24.1869 42.0744 25.8105 40.3152 26.8041L34.1537 30.2786L34.0353 30.3436Z" fill="url(#paint1_linear_139_1482)"/>
<g filter="url(#filter1_i_139_1482)">
<path d="M34.1536 30.2773L28.8345 24.998L13.1416 40.5747C13.7209 41.1846 14.6792 41.2596 15.7583 40.6522L34.1536 30.2773Z" fill="url(#paint2_linear_139_1482)"/>
</g>
<path d="M34.1536 19.7187L15.7583 9.34509C14.6792 8.73642 13.7209 8.81266 13.1416 9.42258L28.8357 24.9992L34.1536 19.7187Z" fill="url(#paint3_linear_139_1482)"/>
</g>
<defs>
<filter id="filter0_ii_139_1482" x="12.5586" y="8.92505" width="29.076" height="32.1467" filterUnits="userSpaceOnUse" color-interpolation-filters="sRGB">
<feFlood flood-opacity="0" result="BackgroundImageFix"/>
<feBlend mode="normal" in="SourceGraphic" in2="BackgroundImageFix" result="shape"/>
<feColorMatrix in="SourceAlpha" type="matrix" values="0 0 0 0 0 0 0 0 0 0 0 0 0 0 0 0 0 0 127 0" result="hardAlpha"/>
<feOffset dy="-0.15"/>
<feComposite in2="hardAlpha" operator="arithmetic" k2="-1" k3="1"/>
<feColorMatrix type="matrix" values="0 0 0 0 0 0 0 0 0 0 0 0 0 0 0 0 0 0 0.12 0"/>
<feBlend mode="normal" in2="shape" result="effect1_innerShadow_139_1482"/>
<feColorMatrix in="SourceAlpha" type="matrix" values="0 0 0 0 0 0 0 0 0 0 0 0 0 0 0 0 0 0 127 0" result="hardAlpha"/>
<feOffset dy="0.15"/>
<feComposite in2="hardAlpha" operator="arithmetic" k2="-1" k3="1"/>
<feColorMatrix type="matrix" values="0 0 0 0 1 0 0 0 0 1 0 0 0 0 1 0 0 0 0.25 0"/>
<feBlend mode="normal" in2="effect1_innerShadow_139_1482" result="effect2_innerShadow_139_1482"/>
</filter>
<filter id="filter1_i_139_1482" x="13.1416" y="24.998" width="21.012" height="16.0737" filterUnits="userSpaceOnUse" color-interpolation-filters="sRGB">
<feFlood flood-opacity="0" result="BackgroundImageFix"/>
<feBlend mode="normal" in="SourceGraphic" in2="BackgroundImageFix" result="shape"/>
<feColorMatrix in="SourceAlpha" type="matrix" values="0 0 0 0 0 0 0 0 0 0 0 0 0 0 0 0 0 0 127 0" result="hardAlpha"/>
<feOffset dy="-0.15"/>
<feComposite in2="hardAlpha" operator="arithmetic" k2="-1" k3="1"/>
<feColorMatrix type="matrix" values="0 0 0 0 0 0 0 0 0 0 0 0 0 0 0 0 0 0 0.08 0"/>
<feBlend mode="normal" in2="shape" result="effect1_innerShadow_139_1482"/>
</filter>
<linearGradient id="paint0_linear_139_1482" x1="27.4529" y1="10.8849" x2="6.47878" y2="32.0172" gradientUnits="userSpaceOnUse">
<stop stop-color="#00A0FF"/>
<stop offset="0.0066" stop-color="#00A1FF"/>
<stop offset="0.2601" stop-color="#00BEFF"/>
<stop offset="0.5122" stop-color="#00D2FF"/>
<stop offset="0.7604" stop-color="#00DFFF"/>
<stop offset="1" stop-color="#00E3FF"/>
</linearGradient>
<linearGradient id="paint1_linear_139_1482" x1="42.6052" y1="24.9981" x2="12.1363" y2="24.9981" gradientUnits="userSpaceOnUse">
<stop stop-color="#FFE000"/>
<stop offset="0.4087" stop-color="#FFBD00"/>
<stop offset="0.7754" stop-color="#FFA500"/>
<stop offset="1" stop-color="#FF9C00"/>
</linearGradient>
<linearGradient id="paint2_linear_139_1482" x1="31.265" y1="27.865" x2="2.8215" y2="56.5231" gradientUnits="userSpaceOnUse">
<stop stop-color="#FF3A44"/>
<stop offset="1" stop-color="#C31162"/>
</linearGradient>
<linearGradient id="paint3_linear_139_1482" x1="9.18929" y1="0.221064" x2="21.8901" y2="13.0177" gradientUnits="userSpaceOnUse">
<stop stop-color="#32A071"/>
<stop offset="0.0685" stop-color="#2DA771"/>
<stop offset="0.4762" stop-color="#15CF74"/>
<stop offset="0.8009" stop-color="#06E775"/>
<stop offset="1" stop-color="#00F076"/>
</linearGradient>
</defs>
</svg>
