<svg width="546" height="546" viewBox="0 0 546 546" fill="none" xmlns="http://www.w3.org/2000/svg">
<rect width="546" height="546" rx="42.6562" fill="#F4B7E7"/>
<path fill-rule="evenodd" clip-rule="evenodd" d="M0 151.958V215.171C6.72131 215.652 13.8723 216.619 21.09 217.595C23.5662 217.93 26.0503 218.266 28.5275 218.583C44.4978 220.631 60.2032 221.931 72.3447 217.73C78.3235 215.661 85.561 210.088 93.7036 202.586C99.7166 197.046 106.143 190.534 112.839 183.747L112.84 183.747L112.848 183.738L112.857 183.729C115.194 181.361 117.563 178.96 119.959 176.556C129.211 167.271 138.846 157.95 148.431 150.409C158.004 142.878 167.611 137.053 176.815 134.848C195.093 130.471 210.877 134.751 224.705 139.87C227.562 140.928 230.311 142.012 232.98 143.064L232.981 143.064C236.82 144.577 240.491 146.024 244.071 147.232C250.104 149.267 255.662 150.54 260.887 150.2C266.032 149.864 271.71 147.116 277.909 142.94C283.429 139.221 289.244 134.455 295.344 129.454C296.076 128.855 296.812 128.252 297.551 127.647C304.439 122.014 311.662 116.228 319.116 111.529C326.569 106.83 334.31 103.181 342.246 101.868C350.199 100.551 358.558 101.721 366.954 104.027C375.124 106.271 383.403 109.614 391.442 112.859L392.105 113.127C400.379 116.466 408.377 119.663 415.846 121.5C423.316 123.337 430.129 123.778 436.063 121.725C442.051 119.653 448.835 114.545 456.277 107.769C461.775 102.763 467.558 96.9167 473.581 90.8287L473.583 90.8273L473.583 90.8267C475.694 88.6932 477.834 86.53 480.002 84.3628C488.336 76.0299 497.054 67.6603 505.954 60.8316C514.848 54.008 523.99 48.6709 533.179 46.4699C537.866 45.3474 542.106 44.8714 546 44.894V42.6577C546 19.0993 526.902 0.00146484 503.344 0.00146484H468.248C462.202 5.2541 456.252 11.0339 450.455 16.8304C448.308 18.9769 446.18 21.1272 444.077 23.2533L444.076 23.2539C438.041 29.3545 432.202 35.2563 426.663 40.3007C419.209 47.0876 412.164 52.4509 405.756 54.6682C399.294 56.9042 392.038 56.3717 384.407 54.4953C376.775 52.6185 368.642 49.3629 360.396 46.0346L359.778 45.7854C351.704 42.5259 343.519 39.2213 335.463 37.0087C327.205 34.7402 319.163 33.6438 311.612 34.8939C304.043 36.1467 296.561 39.6471 289.222 44.2737C281.884 48.8995 274.747 54.6132 267.856 60.2482C267.118 60.8516 266.383 61.4543 265.651 62.0547L265.647 62.0578C259.561 67.0464 253.668 71.8772 248.065 75.6522C241.802 79.8714 235.753 82.8774 230.055 83.2486C224.438 83.6146 218.583 82.2419 212.471 80.1802C208.865 78.9637 205.092 77.4776 201.198 75.9438C198.534 74.8942 195.812 73.8222 193.049 72.7992C179.339 67.7232 164.014 63.6086 146.32 67.8464C137.538 69.9497 128.204 75.5625 118.707 83.0341C109.223 90.4952 99.6607 99.7416 90.4145 109.021C88.0324 111.411 85.6701 113.805 83.3359 116.171L83.3322 116.175L83.3318 116.175C76.6245 122.972 70.1485 129.535 64.0976 135.11C55.966 142.602 48.455 148.453 42.0376 150.673C30.099 154.804 15.0282 153.798 0 151.958ZM465.217 0.00146484H42.6562C19.0979 0.00146484 0 19.0993 0 42.6577L0 149.943C15.1246 151.803 29.8594 152.771 41.3836 148.783C47.3624 146.714 54.5999 141.141 62.7424 133.639C68.7555 128.099 75.1818 121.587 81.8784 114.8L81.8826 114.796C84.2234 112.424 86.5971 110.018 88.9978 107.609C98.25 98.3238 107.885 89.0035 117.47 81.4622C127.043 73.9313 136.65 68.1058 145.854 65.9014C164.132 61.5239 179.916 65.8042 193.744 70.9236C196.601 71.9815 199.35 73.0652 202.018 74.1168L202.019 74.1171C205.858 75.6302 209.529 77.077 213.11 78.2851C219.143 80.3202 224.701 81.5933 229.925 81.2528C235.07 80.9176 240.749 78.1691 246.947 73.9935C252.468 70.2747 258.283 65.5079 264.383 60.5075C265.115 59.9079 265.85 59.3049 266.59 58.7C273.477 53.0674 280.701 47.281 288.155 42.5819C295.608 37.8836 303.349 34.2344 311.285 32.9207C319.238 31.6043 327.597 32.7739 335.993 35.0801C344.162 37.324 352.442 40.6668 360.481 43.9124L361.144 44.18C369.418 47.5196 377.416 50.7166 384.885 52.5532C392.354 54.39 399.168 54.8315 405.102 52.7782C411.09 50.7062 417.874 45.5983 425.316 38.8219C430.814 33.8155 436.599 27.9686 442.622 21.8799L442.628 21.8738C444.737 19.7423 446.875 17.5811 449.04 15.416C454.297 10.1605 459.706 4.89039 465.217 0.00146484ZM0 330.631V217.175C6.5575 217.652 13.5752 218.6 20.7532 219.569H20.7533L20.7612 219.57L20.7657 219.571C23.2531 219.906 25.7597 220.245 28.2731 220.567C44.1804 222.607 60.348 223.997 72.9987 219.62C79.4161 217.4 86.9272 211.549 95.0587 204.057C101.11 198.482 107.586 191.919 114.293 185.122L114.293 185.122L114.293 185.121L114.295 185.12C116.63 182.754 118.993 180.359 121.376 177.968C130.622 168.688 140.184 159.442 149.668 151.981C159.165 144.509 168.499 138.897 177.281 136.793C194.975 132.555 210.3 136.67 224.01 141.746C226.773 142.769 229.495 143.841 232.16 144.891C236.053 146.424 239.826 147.911 243.432 149.127C249.544 151.189 255.399 152.561 261.017 152.195C266.714 151.824 272.763 148.818 279.026 144.599C284.63 140.824 290.522 135.993 296.608 131.005L296.608 131.005C297.342 130.403 298.078 129.799 298.817 129.195C305.708 123.56 312.845 117.846 320.183 113.221C327.522 108.594 335.005 105.094 342.573 103.841C350.125 102.591 358.166 103.687 366.425 105.955C374.48 108.168 382.665 111.473 390.739 114.732L391.357 114.981C399.603 118.31 407.736 121.565 415.368 123.442C422.999 125.319 430.255 125.851 436.717 123.615C443.125 121.398 450.17 116.034 457.624 109.248C463.163 104.203 469.002 98.3016 475.037 92.2012L475.037 92.2008L475.038 92.2001C477.141 90.074 479.269 87.9237 481.416 85.7771C489.741 77.4525 498.382 69.1621 507.172 62.4184C515.968 55.6695 524.849 50.5217 533.645 48.4149C538.185 47.3278 542.268 46.8713 546 46.894V160.448C542.453 160.524 538.621 161.011 534.431 162.014C525.241 164.215 516.1 169.552 507.206 176.376C498.305 183.205 489.587 191.574 481.253 199.907C479.086 202.074 476.945 204.237 474.835 206.371L474.834 206.372L474.832 206.374C468.809 212.462 463.026 218.308 457.529 223.313C450.087 230.089 443.303 235.197 437.315 237.269C431.38 239.323 424.567 238.881 417.097 237.044C409.629 235.208 401.631 232.011 393.357 228.671L392.694 228.403C384.655 225.158 376.375 221.815 368.206 219.571C359.81 217.265 351.451 216.095 343.498 217.412C335.562 218.726 327.821 222.375 320.368 227.073C312.913 231.772 305.69 237.558 298.803 243.191C298.079 243.783 297.359 244.373 296.643 244.96L296.596 244.999L296.596 244.999C290.495 249.999 284.68 254.766 279.16 258.485C272.962 262.66 267.283 265.409 262.138 265.744C256.913 266.084 251.355 264.811 245.323 262.776C241.742 261.568 238.07 260.121 234.231 258.608L234.23 258.607C231.562 257.556 228.813 256.472 225.956 255.415C212.129 250.295 196.345 246.015 178.067 250.392C168.862 252.597 159.255 258.422 149.683 265.953C140.097 273.495 130.463 282.815 121.21 292.1C118.813 294.506 116.442 296.909 114.104 299.278L114.1 299.283L114.091 299.291C107.394 306.078 100.968 312.591 94.9551 318.13C86.8125 325.632 79.575 331.206 73.5962 333.274C61.4547 337.476 45.7493 336.176 29.779 334.128C27.3018 333.81 24.8177 333.474 22.3415 333.139L22.341 333.139C14.6738 332.103 7.08165 331.076 0 330.631ZM546 162.449C542.61 162.524 538.934 162.992 534.897 163.959C526.1 166.066 517.22 171.214 508.423 177.963C499.633 184.706 490.993 192.997 482.667 201.321C480.52 203.468 478.393 205.618 476.29 207.744L476.289 207.745L476.288 207.746L476.286 207.748C470.252 213.847 464.414 219.748 458.875 224.792C451.422 231.579 444.377 236.942 437.969 239.159C431.507 241.395 424.25 240.863 416.62 238.986C408.988 237.11 400.854 233.854 392.608 230.526L391.991 230.276C383.917 227.017 375.731 223.712 367.676 221.5C359.418 219.231 351.376 218.135 343.824 219.385C336.256 220.638 328.773 224.138 321.434 228.765C314.096 233.391 306.959 239.104 300.069 244.739C299.33 245.344 298.593 245.947 297.86 246.549L297.859 246.549C291.774 251.538 285.881 256.368 280.277 260.143C274.014 264.362 267.966 267.368 262.268 267.74C256.65 268.106 250.795 266.733 244.684 264.671C241.078 263.455 237.305 261.969 233.412 260.435L233.411 260.435L233.408 260.434L233.404 260.432L233.401 260.431C230.739 259.383 228.021 258.312 225.262 257.29C211.552 252.214 196.227 248.1 178.532 252.337C169.75 254.441 160.416 260.054 150.92 267.525C141.436 274.986 131.873 284.233 122.627 293.512C120.247 295.9 117.887 298.292 115.555 300.655L115.545 300.666C108.837 307.463 102.361 314.026 96.3102 319.601C88.1787 327.093 80.6676 332.944 74.2502 335.164C61.5995 339.542 45.4319 338.151 29.5246 336.111C27.0071 335.789 24.4963 335.45 22.0048 335.113C14.3681 334.082 6.91273 333.076 0 332.633V448.038C1.95077 446.466 3.96041 444.908 6.0087 443.393C16.8028 435.409 28.8313 428.5 39.0335 427.271C49.6345 425.994 62.7671 427.77 76.1279 429.576L76.1312 429.577L76.1364 429.577C78.6098 429.912 81.091 430.247 83.5654 430.564C99.5358 432.612 115.241 433.912 127.383 429.711C133.361 427.642 140.599 422.069 148.742 414.567C154.753 409.028 161.179 402.517 167.874 395.732L167.876 395.73L167.877 395.728L167.882 395.724L167.918 395.687C170.247 393.327 172.609 390.934 174.997 388.537C184.249 379.252 193.884 369.931 203.469 362.39C213.042 354.859 222.649 349.034 231.853 346.829C250.131 342.452 265.915 346.732 279.743 351.852C282.599 352.909 285.348 353.993 288.016 355.044L288.018 355.045L288.021 355.046C291.859 356.559 295.529 358.005 299.109 359.213C305.142 361.248 310.7 362.521 315.924 362.181C321.069 361.846 326.748 359.097 332.946 354.921C338.466 351.203 344.28 346.437 350.379 341.438L350.38 341.438L350.382 341.436L350.382 341.435L350.435 341.392C351.149 340.807 351.867 340.218 352.589 339.628C359.477 333.995 366.7 328.209 374.154 323.51C381.607 318.811 389.348 315.162 397.284 313.849C405.237 312.532 413.596 313.702 421.992 316.008C430.161 318.252 438.441 321.595 446.479 324.84L446.48 324.84L447.143 325.108C455.417 328.448 463.415 331.645 470.884 333.481C478.354 335.318 485.167 335.759 491.101 333.706C497.089 331.634 503.873 326.526 511.315 319.75C516.813 314.743 522.598 308.897 528.621 302.808C530.732 300.674 532.872 298.511 535.039 296.344C538.627 292.757 542.286 289.163 546 285.688V162.449ZM546 288.434C542.779 291.483 539.594 294.618 536.454 297.758C534.307 299.905 532.179 302.055 530.076 304.181L530.073 304.184L530.07 304.187L530.067 304.191L530.06 304.197L530.06 304.198L530.059 304.198L530.059 304.199C524.029 310.293 518.196 316.189 512.662 321.229C505.208 328.016 498.163 333.379 491.755 335.596C485.293 337.832 478.037 337.3 470.406 335.423C462.774 333.546 454.641 330.291 446.395 326.963L445.777 326.713C437.703 323.454 429.518 320.149 421.462 317.937C413.204 315.668 405.162 314.572 397.611 315.822C390.043 317.075 382.56 320.575 375.221 325.202C367.883 329.827 360.746 335.541 353.855 341.176L353.56 341.418L352.904 341.954C352.505 342.282 352.106 342.609 351.708 342.935L351.702 342.94L351.646 342.986L351.645 342.987C345.56 347.975 339.667 352.805 334.064 356.58C327.801 360.799 321.752 363.805 316.055 364.177C310.437 364.543 304.582 363.17 298.47 361.108C294.864 359.892 291.091 358.405 287.197 356.872C284.533 355.822 281.811 354.75 279.048 353.727C265.338 348.651 250.013 344.537 232.319 348.774C223.537 350.878 214.203 356.49 204.706 363.962C195.222 371.423 185.66 380.669 176.414 389.949C174.03 392.34 171.667 394.736 169.331 397.103C162.624 403.9 156.148 410.463 150.097 416.038C141.965 423.53 134.454 429.381 128.037 431.601C115.386 435.979 99.2183 434.588 83.3111 432.548C80.8047 432.227 78.305 431.889 75.8244 431.555L75.8177 431.554L75.8128 431.553L75.7913 431.55C62.4148 429.744 49.5949 428.013 39.2726 429.257C29.6263 430.419 17.9595 437.041 7.19801 445.001C4.73044 446.826 2.31894 448.715 0 450.614V503.345C0 526.904 19.0979 546.001 42.6562 546.001H219.058C228.047 539.134 237.043 533.873 245.684 531.803C263.962 527.426 279.747 531.706 293.574 536.825C296.422 537.88 299.164 538.96 301.824 540.009L301.84 540.015L301.849 540.019C305.688 541.532 309.359 542.979 312.941 544.187C315.044 544.896 317.089 545.513 319.083 546.001H335.227C338.85 544.77 342.701 542.641 346.778 539.895C352.298 536.176 358.113 531.41 364.214 526.409C364.945 525.81 365.681 525.207 366.42 524.602C373.308 518.969 380.531 513.183 387.985 508.484C395.438 503.785 403.179 500.136 411.115 498.822C419.068 497.506 427.427 498.676 435.824 500.982C443.992 503.226 452.272 506.568 460.311 509.814L460.311 509.814L460.311 509.814L460.312 509.814L460.975 510.082C469.249 513.421 477.247 516.618 484.715 518.455C492.185 520.292 498.998 520.733 504.932 518.68C510.92 516.608 517.704 511.5 525.146 504.724C530.644 499.717 536.429 493.87 542.453 487.782L542.457 487.777L543.597 486.624C544.063 486.154 544.53 485.682 544.998 485.21C545.331 484.874 545.665 484.537 546 484.2V353.298C542.133 357.164 538.366 360.846 534.727 364.159C527.274 370.946 520.229 376.31 513.821 378.527C507.359 380.763 500.103 380.23 492.472 378.354C484.84 376.477 476.706 373.222 468.46 369.893L467.843 369.644C459.769 366.385 451.584 363.08 443.528 360.867C435.27 358.599 427.228 357.502 419.677 358.753C412.108 360.005 404.626 363.506 397.286 368.132C389.949 372.758 382.811 378.472 375.921 384.107C375.205 384.692 374.492 385.277 373.781 385.859L373.712 385.916C367.626 390.905 361.733 395.736 356.13 399.511C349.867 403.73 343.818 406.736 338.12 407.107C332.502 407.473 326.647 406.101 320.536 404.039C316.93 402.822 313.157 401.336 309.263 399.803C306.598 398.753 303.877 397.681 301.114 396.658C287.404 391.582 272.079 387.467 254.385 391.705C245.602 393.808 236.269 399.421 226.772 406.893C217.288 414.354 207.726 423.6 198.479 432.879C196.096 435.271 193.732 437.667 191.397 440.033C184.69 446.831 178.214 453.394 172.162 458.969C164.031 466.46 156.52 472.311 150.102 474.532C137.452 478.909 121.284 477.519 105.377 475.479C102.862 475.156 100.354 474.818 97.8652 474.482L97.8571 474.481C84.4806 472.675 71.6607 470.944 61.3384 472.187C51.6921 473.349 40.0253 479.972 29.2638 487.931C18.5417 495.862 8.87829 504.997 3.26781 510.979L1.80903 509.611C7.48846 503.556 17.2409 494.336 28.0745 486.323C38.8686 478.34 50.897 471.431 61.0992 470.202C71.7003 468.925 84.8329 470.701 98.1937 472.507L98.197 472.507L98.2022 472.508C100.676 472.842 103.157 473.178 105.631 473.495C121.602 475.543 137.307 476.843 149.448 472.642C155.427 470.573 162.665 465 170.807 457.498C176.82 451.959 183.245 445.447 189.941 438.661L189.943 438.659L189.943 438.659C192.285 436.285 194.661 433.878 197.063 431.468C206.315 422.182 215.95 412.862 225.535 405.321C235.107 397.79 244.715 391.964 253.919 389.76C272.197 385.383 287.981 389.663 301.808 394.782C304.657 395.837 307.398 396.917 310.059 397.966L310.067 397.969L310.078 397.973L310.083 397.975L310.083 397.975C313.923 399.489 317.594 400.936 321.175 402.144C327.208 404.179 332.765 405.452 337.99 405.112C343.135 404.776 348.814 402.028 355.012 397.852C360.531 394.134 366.346 389.368 372.445 384.369L372.447 384.367L372.448 384.366C373.18 383.767 373.915 383.164 374.655 382.559C381.542 376.926 388.766 371.14 396.22 366.441C403.673 361.742 411.414 358.093 419.35 356.779C427.303 355.463 435.662 356.633 444.058 358.939C452.227 361.183 460.507 364.526 468.546 367.771L469.209 368.039C477.483 371.378 485.481 374.575 492.949 376.412C500.419 378.249 507.233 378.69 513.167 376.637C519.155 374.565 525.939 369.457 533.381 362.681C537.438 358.987 541.65 354.835 546 350.466V288.434ZM546 487.041C545.332 487.715 544.665 488.389 544.002 489.06L543.92 489.142L543.907 489.155C537.872 495.256 532.033 501.158 526.493 506.202C519.04 512.989 511.994 518.353 505.586 520.57C499.124 522.806 491.868 522.273 484.237 520.397C476.605 518.52 468.472 515.265 460.226 511.936L459.609 511.687C451.535 508.428 443.349 505.123 435.294 502.91C427.035 500.642 418.994 499.546 411.442 500.796C403.874 502.048 396.391 505.549 389.052 510.175C381.714 514.801 374.577 520.515 367.687 526.15C367.191 526.556 366.696 526.961 366.202 527.365L365.477 527.96C359.392 532.948 353.499 537.779 347.895 541.554C345.35 543.269 342.84 544.783 340.375 546.001H503.344C526.902 546.001 546 526.904 546 503.345V487.041ZM312.064 546.001C308.531 544.801 304.84 543.347 301.033 541.847L301.029 541.846C298.364 540.796 295.643 539.724 292.88 538.701C279.17 533.625 263.845 529.51 246.15 533.748C238.559 535.566 230.557 540.006 222.393 546.001H312.064Z" fill="#E29CCF"/>
</svg>
